<svg xmlns="http://www.w3.org/2000/svg" viewBox="-895.1 848.4 42 42" width="42px" height="42px">
<path d="M-885.4,853.4c-1.3,0-2.4,0.5-3.3,1.4c-0.9,0.9-1.4,2-1.4,3.3v22.7c0,1.3,0.5,2.4,1.4,3.3c0.9,0.9,2,1.4,3.3,1.4h22.7
	c1.3,0,2.4-0.5,3.3-1.4c0.9-0.9,1.4-2,1.4-3.3v-22.7c0-1.3-0.5-2.4-1.4-3.3c-0.9-0.9-2-1.4-3.3-1.4H-885.4z M-886.7,861.5v-4
	c0-0.2,0.1-0.3,0.2-0.5c0.1-0.2,0.3-0.2,0.5-0.2h4c0.2,0,0.3,0.1,0.5,0.2c0.2,0.1,0.2,0.3,0.2,0.5v4c0,0.2-0.1,0.3-0.2,0.5
	c-0.1,0.2-0.3,0.2-0.5,0.2h-4c-0.2,0-0.3-0.1-0.5-0.2C-886.7,861.9-886.7,861.6-886.7,861.5z M-874,863.5c1.7,0,3,0.6,4.3,1.8
	c1.2,1.2,1.8,2.6,1.8,4.3s-0.6,3-1.8,4.3c-1.2,1.2-2.6,1.8-4.3,1.8s-3-0.6-4.3-1.8s-1.8-2.6-1.8-4.3s0.6-3,1.8-4.3
	S-875.7,863.5-874,863.5z M-886.7,881.5v-14h3.5c-0.2,0.6-0.2,1.3-0.2,2c0,1.7,0.4,3.3,1.3,4.7s2,2.6,3.4,3.4c1.4,0.8,3,1.3,4.7,1.3
	c1.7,0,3.3-0.4,4.7-1.3c1.4-0.9,2.6-2,3.4-3.4s1.3-3,1.3-4.7c0-0.7-0.1-1.4-0.2-2h3.5v14c0,0.2-0.1,0.3-0.2,0.5
	c-0.1,0.2-0.3,0.2-0.5,0.2h-24.1c-0.2,0-0.3-0.1-0.5-0.2C-886.8,881.9-886.7,881.7-886.7,881.5L-886.7,881.5z"/>
</svg>
