<svg xmlns="http://www.w3.org/2000/svg" viewBox="-620 447.6 42 42" width="42px" height="42px"><path d="M-604 449.5c-1.8.6-3.4 1.3-4.6 2.3-1.3 1-2.3 2.1-3.2 3.3s-1.6 2.5-2 3.9-.6 2.7-.6 4c0 2.1.4 3.9 1.2 5.4.8 1.6 2 2.7 3.5 3.3.3.1.5.1.7 0 .2-.1.3-.3.4-.6.3-1 .4-1.6.5-1.8.1-.3.1-.5 0-.6s-.2-.3-.4-.6c-1-1.2-1.5-2.8-1.5-4.6 0-1.4.3-2.8.8-4.2.5-1.3 1.3-2.5 2.2-3.5s2.2-1.8 3.6-2.4 3-.9 4.7-.9c3 0 5.3.8 7 2.5s2.5 3.8 2.5 6.4c0 2.2-.3 4.2-.9 6.1-.6 1.8-1.5 3.3-2.6 4.5s-2.4 1.7-3.8 1.7c-1.2 0-2.2-.4-3-1.3-.7-.9-1-1.9-.7-3.1.2-.7.4-1.6.8-2.8s.7-2.2.9-3.1c.2-.9.3-1.6.3-2.2 0-1-.3-1.8-.8-2.5-.5-.6-1.3-1-2.3-1-1.2 0-2.3.6-3.1 1.7-.8 1.1-1.3 2.5-1.3 4.2 0 1.4.2 2.7.7 3.7l-2.9 12.5c-.1.6-.2 1.2-.3 1.9-.1.7-.1 1.3-.1 1.9v1.8c0 .6.1 1.1.1 1.5s.1.8.1 1.1c0 .4.1.5.1.5 0 .1.1.2.2.2s.2 0 .3-.1c.2-.3.6-.7 1-1.3.4-.6 1-1.5 1.7-2.7.7-1.2 1.2-2.4 1.5-3.5.2-.7.7-2.8 1.6-6.3.4.8 1.2 1.4 2.2 2 1.1.5 2.2.8 3.4.8 2.4 0 4.6-.7 6.4-2.1 1.9-1.4 3.3-3.2 4.4-5.6 1-2.4 1.5-5.1 1.5-8.1 0-1.7-.4-3.3-1.1-4.9s-1.7-3-2.9-4.2c-1.2-1.2-2.8-2.2-4.6-2.9-1.8-.7-3.8-1.1-6-1.1-1.8-.1-3.8.2-5.6.8z"/></svg>