<svg xmlns="http://www.w3.org/2000/svg" viewBox="-277 399.6 42 42" width="42px" height="42px"><path d="M-236 408c-1.5.7-3.1 1.1-4.8 1.6 1.8-1.1 3-2.6 3.6-4.6-1.6 1-3.3 1.6-5.2 2-1.7-1.7-3.7-2.6-6-2.6s-4.2.8-5.8 2.4-2.4 3.5-2.4 5.8c0 .8.1 1.4.2 1.9-3.3-.2-6.4-1.1-9.4-2.5s-5.4-3.4-7.5-5.9c-.7 1.3-1.1 2.7-1.1 4 0 1.4.3 2.7 1 3.9s1.6 2.1 2.7 2.9c-1.3 0-2.5-.4-3.7-1v.1c0 2 .7 3.7 1.9 5.2s2.8 2.4 4.7 2.8c-.7.2-1.4.3-2.2.3-.4 0-1-.1-1.5-.2.5 1.7 1.4 3.1 2.9 4.1s3 1.6 4.8 1.6c-1.4 1.2-3 2.1-4.8 2.8s-3.6 1.1-5.4 1.1c-.8 0-1.4 0-2-.1 3.5 2.2 7.7 3.3 12.6 3.3 2.4 0 4.7-.3 6.9-1s4.1-1.5 5.8-2.7 3.3-2.5 4.6-4 2.4-3.1 3.3-4.9 1.5-3.6 2-5.4.7-3.7.7-5.5v-1.1c1.6-1.2 3-2.6 4.1-4.3z"/></svg>