<svg xmlns="http://www.w3.org/2000/svg" viewBox="0 0 166.3 44.4" width="166px" height="44px">
<g>
	<path d="M0,43.7V0.8h5.7v37.9h21.2v5.1H0z"/>
	<path d="M31.9,22.8c0-7.1,1.9-12.7,5.7-16.7c3.8-4,8.8-6,14.8-6c4,0,7.5,0.9,10.7,2.8c3.2,1.9,5.6,4.5,7.3,7.9
		c1.7,3.4,2.5,7.2,2.5,11.5c0,4.4-0.9,8.3-2.6,11.7c-1.8,3.4-4.2,6-7.5,7.8c-3.2,1.8-6.7,2.7-10.4,2.7c-4,0-7.7-1-10.8-2.9
		c-3.2-2-5.6-4.6-7.2-8C32.7,30.1,31.9,26.6,31.9,22.8z M37.7,22.9c0,5.2,1.4,9.3,4.2,12.2c2.8,3,6.3,4.5,10.5,4.5
		c4.3,0,7.8-1.5,10.6-4.5c2.8-3,4.1-7.3,4.1-12.8c0-3.5-0.6-6.5-1.8-9.2c-1.2-2.6-2.9-4.6-5.2-6.1c-2.3-1.4-4.8-2.2-7.7-2.2
		c-4,0-7.5,1.4-10.4,4.1C39.2,11.8,37.7,16.4,37.7,22.9z"/>
	<path d="M100.4,26.9v-5l18.2,0v15.9c-2.8,2.2-5.7,3.9-8.6,5s-6,1.7-9.1,1.7c-4.2,0-8.1-0.9-11.5-2.7c-3.4-1.8-6-4.4-7.8-7.8
		c-1.8-3.4-2.6-7.2-2.6-11.5c0-4.2,0.9-8.1,2.6-11.7c1.7-3.6,4.3-6.3,7.5-8.1S96.1,0,100.3,0c3.1,0,5.9,0.5,8.4,1.5
		c2.5,1,4.5,2.4,5.9,4.2c1.4,1.8,2.5,4.1,3.3,7l-5.1,1.4c-0.6-2.2-1.4-3.9-2.4-5.2c-1-1.2-2.3-2.3-4.1-3c-1.8-0.8-3.8-1.1-5.9-1.1
		c-2.6,0-4.8,0.4-6.7,1.2c-1.9,0.8-3.4,1.8-4.6,3.1c-1.2,1.3-2.1,2.7-2.7,4.2c-1.1,2.7-1.6,5.5-1.6,8.6c0,3.8,0.7,7,2,9.6
		s3.2,4.5,5.8,5.7c2.5,1.2,5.2,1.9,8,1.9c2.5,0,4.9-0.5,7.2-1.4c2.3-0.9,4.1-2,5.3-3v-8H100.4z"/>
	<path d="M125.2,22.8c0-7.1,1.9-12.7,5.7-16.7c3.8-4,8.8-6,14.8-6c4,0,7.5,0.9,10.7,2.8c3.2,1.9,5.6,4.5,7.3,7.9
		c1.7,3.4,2.5,7.2,2.5,11.5c0,4.4-0.9,8.3-2.6,11.7c-1.8,3.4-4.2,6-7.5,7.8c-3.2,1.8-6.7,2.7-10.4,2.7c-4,0-7.7-1-10.8-2.9
		c-3.2-2-5.6-4.6-7.2-8C126,30.1,125.2,26.6,125.2,22.8z M131.1,22.9c0,5.2,1.4,9.3,4.2,12.2c2.8,3,6.3,4.5,10.5,4.5
		c4.3,0,7.8-1.5,10.6-4.5c2.8-3,4.1-7.3,4.1-12.8c0-3.5-0.6-6.5-1.8-9.2s-2.9-4.6-5.2-6.1s-4.8-2.2-7.7-2.2c-4,0-7.5,1.4-10.4,4.1
		C132.5,11.8,131.1,16.4,131.1,22.9z"/>
</g>
</svg>
